<mxfile host="app.diagrams.net" modified="2021-12-01T07:24:00.352Z" agent="5.0 (Windows NT 10.0; Win64; x64) AppleWebKit/537.36 (KHTML, like Gecko) Chrome/96.0.4664.45 Safari/537.36" etag="YEORYDHmuF2vBBUMj8DB" version="14.3.0" type="github">
  <diagram id="LSPMP-w4RNwfpnUbGc-Q" name="ページ1">
    <mxGraphModel dx="1108" dy="450" grid="1" gridSize="10" guides="1" tooltips="1" connect="1" arrows="1" fold="1" page="1" pageScale="1" pageWidth="827" pageHeight="1169" math="0" shadow="0">
      <root>
        <mxCell id="0" />
        <mxCell id="1" parent="0" />
        <mxCell id="-SbBaC57bwo80Ey5Qgcd-5" value="MainActivity(1回目)" style="swimlane;fontStyle=0;childLayout=stackLayout;horizontal=1;startSize=26;fillColor=none;horizontalStack=0;resizeParent=1;resizeParentMax=0;resizeLast=0;collapsible=1;marginBottom=0;" vertex="1" parent="1">
          <mxGeometry x="40" y="40" width="140" height="130" as="geometry" />
        </mxCell>
        <mxCell id="-SbBaC57bwo80Ey5Qgcd-6" value="ログイン処理" style="text;strokeColor=none;fillColor=none;align=left;verticalAlign=top;spacingLeft=4;spacingRight=4;overflow=hidden;rotatable=0;points=[[0,0.5],[1,0.5]];portConstraint=eastwest;" vertex="1" parent="-SbBaC57bwo80Ey5Qgcd-5">
          <mxGeometry y="26" width="140" height="26" as="geometry" />
        </mxCell>
        <mxCell id="-SbBaC57bwo80Ey5Qgcd-7" value="・PW入力処理(初回)" style="text;strokeColor=none;fillColor=none;align=left;verticalAlign=top;spacingLeft=4;spacingRight=4;overflow=hidden;rotatable=0;points=[[0,0.5],[1,0.5]];portConstraint=eastwest;" vertex="1" parent="-SbBaC57bwo80Ey5Qgcd-5">
          <mxGeometry y="52" width="140" height="26" as="geometry" />
        </mxCell>
        <mxCell id="-SbBaC57bwo80Ey5Qgcd-8" value="・ID入力処理(初回)&#xa;&#xa;・画面遷移" style="text;strokeColor=none;fillColor=none;align=left;verticalAlign=top;spacingLeft=4;spacingRight=4;overflow=hidden;rotatable=0;points=[[0,0.5],[1,0.5]];portConstraint=eastwest;" vertex="1" parent="-SbBaC57bwo80Ey5Qgcd-5">
          <mxGeometry y="78" width="140" height="52" as="geometry" />
        </mxCell>
        <mxCell id="-SbBaC57bwo80Ey5Qgcd-9" value="MainActivity(2回目)" style="swimlane;fontStyle=0;childLayout=stackLayout;horizontal=1;startSize=26;fillColor=none;horizontalStack=0;resizeParent=1;resizeParentMax=0;resizeLast=0;collapsible=1;marginBottom=0;" vertex="1" parent="1">
          <mxGeometry x="40" y="200" width="170" height="140" as="geometry" />
        </mxCell>
        <mxCell id="-SbBaC57bwo80Ey5Qgcd-10" value="ログイン処理" style="text;strokeColor=none;fillColor=none;align=left;verticalAlign=top;spacingLeft=4;spacingRight=4;overflow=hidden;rotatable=0;points=[[0,0.5],[1,0.5]];portConstraint=eastwest;" vertex="1" parent="-SbBaC57bwo80Ey5Qgcd-9">
          <mxGeometry y="26" width="170" height="26" as="geometry" />
        </mxCell>
        <mxCell id="-SbBaC57bwo80Ey5Qgcd-11" value="・PW入力処理(2回目以降)" style="text;strokeColor=none;fillColor=none;align=left;verticalAlign=top;spacingLeft=4;spacingRight=4;overflow=hidden;rotatable=0;points=[[0,0.5],[1,0.5]];portConstraint=eastwest;" vertex="1" parent="-SbBaC57bwo80Ey5Qgcd-9">
          <mxGeometry y="52" width="170" height="26" as="geometry" />
        </mxCell>
        <mxCell id="-SbBaC57bwo80Ey5Qgcd-12" value="・ID入力処理(2回目以降)&#xa;&#xa;・画面遷移" style="text;strokeColor=none;fillColor=none;align=left;verticalAlign=top;spacingLeft=4;spacingRight=4;overflow=hidden;rotatable=0;points=[[0,0.5],[1,0.5]];portConstraint=eastwest;" vertex="1" parent="-SbBaC57bwo80Ey5Qgcd-9">
          <mxGeometry y="78" width="170" height="62" as="geometry" />
        </mxCell>
        <mxCell id="-SbBaC57bwo80Ey5Qgcd-13" value="initial_screenFragment" style="swimlane;fontStyle=0;childLayout=stackLayout;horizontal=1;startSize=26;fillColor=none;horizontalStack=0;resizeParent=1;resizeParentMax=0;resizeLast=0;collapsible=1;marginBottom=0;" vertex="1" parent="1">
          <mxGeometry x="320" y="40" width="170" height="210" as="geometry" />
        </mxCell>
        <mxCell id="-SbBaC57bwo80Ey5Qgcd-14" value="・体重入力" style="text;strokeColor=none;fillColor=none;align=left;verticalAlign=top;spacingLeft=4;spacingRight=4;overflow=hidden;rotatable=0;points=[[0,0.5],[1,0.5]];portConstraint=eastwest;" vertex="1" parent="-SbBaC57bwo80Ey5Qgcd-13">
          <mxGeometry y="26" width="170" height="26" as="geometry" />
        </mxCell>
        <mxCell id="-SbBaC57bwo80Ey5Qgcd-15" value="・写真添付" style="text;strokeColor=none;fillColor=none;align=left;verticalAlign=top;spacingLeft=4;spacingRight=4;overflow=hidden;rotatable=0;points=[[0,0.5],[1,0.5]];portConstraint=eastwest;" vertex="1" parent="-SbBaC57bwo80Ey5Qgcd-13">
          <mxGeometry y="52" width="170" height="26" as="geometry" />
        </mxCell>
        <mxCell id="-SbBaC57bwo80Ey5Qgcd-16" value="・メモ入力&#xa;&#xa;・画面遷移(イメージボタン)&#xa;&#xa;・画面遷移(前日/翌日)&#xa;&#xa;・イメージボタンon/off" style="text;strokeColor=none;fillColor=none;align=left;verticalAlign=top;spacingLeft=4;spacingRight=4;overflow=hidden;rotatable=0;points=[[0,0.5],[1,0.5]];portConstraint=eastwest;" vertex="1" parent="-SbBaC57bwo80Ey5Qgcd-13">
          <mxGeometry y="78" width="170" height="132" as="geometry" />
        </mxCell>
        <mxCell id="-SbBaC57bwo80Ey5Qgcd-17" value="・InitialScreenCamera&lt;br&gt;・InitialScreenDB&lt;br&gt;・InitialTestOpenHelper" style="text;html=1;resizable=0;autosize=1;align=center;verticalAlign=middle;points=[];fillColor=none;strokeColor=none;rounded=0;" vertex="1" parent="1">
          <mxGeometry x="330" y="250" width="140" height="50" as="geometry" />
        </mxCell>
        <mxCell id="-SbBaC57bwo80Ey5Qgcd-18" value="initial_screen.xml" style="text;html=1;resizable=0;autosize=1;align=center;verticalAlign=middle;points=[];fillColor=none;strokeColor=none;rounded=0;" vertex="1" parent="1">
          <mxGeometry x="345" y="20" width="110" height="20" as="geometry" />
        </mxCell>
        <mxCell id="-SbBaC57bwo80Ey5Qgcd-19" value="・FoodCamera&lt;br&gt;・FoodDB&lt;br&gt;・FoodTestOpenHelper" style="text;html=1;resizable=0;autosize=1;align=center;verticalAlign=middle;points=[];fillColor=none;strokeColor=none;rounded=0;" vertex="1" parent="1">
          <mxGeometry x="555" y="610" width="140" height="50" as="geometry" />
        </mxCell>
        <mxCell id="-SbBaC57bwo80Ey5Qgcd-20" value="activity_main.xml" style="text;html=1;resizable=0;autosize=1;align=center;verticalAlign=middle;points=[];fillColor=none;strokeColor=none;rounded=0;" vertex="1" parent="1">
          <mxGeometry x="55" y="20" width="110" height="20" as="geometry" />
        </mxCell>
        <mxCell id="-SbBaC57bwo80Ey5Qgcd-21" value="activity_main.xml" style="text;html=1;resizable=0;autosize=1;align=center;verticalAlign=middle;points=[];fillColor=none;strokeColor=none;rounded=0;" vertex="1" parent="1">
          <mxGeometry x="55" y="180" width="110" height="20" as="geometry" />
        </mxCell>
        <mxCell id="-SbBaC57bwo80Ey5Qgcd-22" value="CalendarAdapter" style="swimlane;fontStyle=0;childLayout=stackLayout;horizontal=1;startSize=26;fillColor=none;horizontalStack=0;resizeParent=1;resizeParentMax=0;resizeLast=0;collapsible=1;marginBottom=0;" vertex="1" parent="1">
          <mxGeometry x="540" y="40" width="170" height="110" as="geometry" />
        </mxCell>
        <mxCell id="-SbBaC57bwo80Ey5Qgcd-23" value="・Gridによるカレンダー表示" style="text;strokeColor=none;fillColor=none;align=left;verticalAlign=top;spacingLeft=4;spacingRight=4;overflow=hidden;rotatable=0;points=[[0,0.5],[1,0.5]];portConstraint=eastwest;" vertex="1" parent="-SbBaC57bwo80Ey5Qgcd-22">
          <mxGeometry y="26" width="170" height="26" as="geometry" />
        </mxCell>
        <mxCell id="-SbBaC57bwo80Ey5Qgcd-25" value="・画面遷移(イメージボタン)&#xa;&#xa;・画面遷移(前月/翌月)" style="text;strokeColor=none;fillColor=none;align=left;verticalAlign=top;spacingLeft=4;spacingRight=4;overflow=hidden;rotatable=0;points=[[0,0.5],[1,0.5]];portConstraint=eastwest;" vertex="1" parent="-SbBaC57bwo80Ey5Qgcd-22">
          <mxGeometry y="52" width="170" height="58" as="geometry" />
        </mxCell>
        <mxCell id="-SbBaC57bwo80Ey5Qgcd-26" value="calendar.xml" style="text;html=1;resizable=0;autosize=1;align=center;verticalAlign=middle;points=[];fillColor=none;strokeColor=none;rounded=0;" vertex="1" parent="1">
          <mxGeometry x="540" width="80" height="20" as="geometry" />
        </mxCell>
        <mxCell id="-SbBaC57bwo80Ey5Qgcd-27" value="calendar_cell.xml" style="text;html=1;resizable=0;autosize=1;align=center;verticalAlign=middle;points=[];fillColor=none;strokeColor=none;rounded=0;" vertex="1" parent="1">
          <mxGeometry x="540" y="20" width="110" height="20" as="geometry" />
        </mxCell>
        <mxCell id="-SbBaC57bwo80Ey5Qgcd-28" value="&lt;span style=&quot;color: rgb(0 , 0 , 0) ; font-family: &amp;#34;helvetica&amp;#34; ; font-size: 12px ; font-style: normal ; font-weight: 400 ; letter-spacing: normal ; text-align: center ; text-indent: 0px ; text-transform: none ; word-spacing: 0px ; background-color: rgb(248 , 249 , 250) ; display: inline ; float: none&quot;&gt;・calendarFragment&lt;/span&gt;" style="text;whiteSpace=wrap;html=1;" vertex="1" parent="1">
          <mxGeometry x="565" y="150" width="120" height="30" as="geometry" />
        </mxCell>
        <mxCell id="-SbBaC57bwo80Ey5Qgcd-29" value="※各セルに当日体重の記載は未実装" style="text;html=1;resizable=0;autosize=1;align=center;verticalAlign=middle;points=[];fillColor=none;strokeColor=none;rounded=0;" vertex="1" parent="1">
          <mxGeometry x="560" y="180" width="210" height="20" as="geometry" />
        </mxCell>
        <mxCell id="-SbBaC57bwo80Ey5Qgcd-30" value="GraphFragment" style="swimlane;fontStyle=0;childLayout=stackLayout;horizontal=1;startSize=26;fillColor=none;horizontalStack=0;resizeParent=1;resizeParentMax=0;resizeLast=0;collapsible=1;marginBottom=0;" vertex="1" parent="1">
          <mxGeometry x="540" y="270" width="160" height="90" as="geometry" />
        </mxCell>
        <mxCell id="-SbBaC57bwo80Ey5Qgcd-31" value="・グラフライブラリによる" style="text;strokeColor=none;fillColor=none;align=left;verticalAlign=top;spacingLeft=4;spacingRight=4;overflow=hidden;rotatable=0;points=[[0,0.5],[1,0.5]];portConstraint=eastwest;" vertex="1" parent="-SbBaC57bwo80Ey5Qgcd-30">
          <mxGeometry y="26" width="160" height="26" as="geometry" />
        </mxCell>
        <mxCell id="-SbBaC57bwo80Ey5Qgcd-32" value="　体重をグラフ化" style="text;strokeColor=none;fillColor=none;align=left;verticalAlign=top;spacingLeft=4;spacingRight=4;overflow=hidden;rotatable=0;points=[[0,0.5],[1,0.5]];portConstraint=eastwest;" vertex="1" parent="-SbBaC57bwo80Ey5Qgcd-30">
          <mxGeometry y="52" width="160" height="38" as="geometry" />
        </mxCell>
        <mxCell id="-SbBaC57bwo80Ey5Qgcd-34" value="graph.xml" style="text;html=1;resizable=0;autosize=1;align=center;verticalAlign=middle;points=[];fillColor=none;strokeColor=none;rounded=0;" vertex="1" parent="1">
          <mxGeometry x="575" y="250" width="70" height="20" as="geometry" />
        </mxCell>
        <mxCell id="-SbBaC57bwo80Ey5Qgcd-36" value="※イメージボタン設定は未実装" style="text;html=1;resizable=0;autosize=1;align=center;verticalAlign=middle;points=[];fillColor=none;strokeColor=none;rounded=0;" vertex="1" parent="1">
          <mxGeometry x="575" y="360" width="180" height="20" as="geometry" />
        </mxCell>
        <mxCell id="-SbBaC57bwo80Ey5Qgcd-37" value="FoodList" style="swimlane;fontStyle=0;childLayout=stackLayout;horizontal=1;startSize=26;fillColor=none;horizontalStack=0;resizeParent=1;resizeParentMax=0;resizeLast=0;collapsible=1;marginBottom=0;" vertex="1" parent="1">
          <mxGeometry x="540" y="480" width="170" height="130" as="geometry" />
        </mxCell>
        <mxCell id="-SbBaC57bwo80Ey5Qgcd-38" value="・写真添付" style="text;strokeColor=none;fillColor=none;align=left;verticalAlign=top;spacingLeft=4;spacingRight=4;overflow=hidden;rotatable=0;points=[[0,0.5],[1,0.5]];portConstraint=eastwest;" vertex="1" parent="-SbBaC57bwo80Ey5Qgcd-37">
          <mxGeometry y="26" width="170" height="26" as="geometry" />
        </mxCell>
        <mxCell id="-SbBaC57bwo80Ey5Qgcd-39" value="・メモ入力" style="text;strokeColor=none;fillColor=none;align=left;verticalAlign=top;spacingLeft=4;spacingRight=4;overflow=hidden;rotatable=0;points=[[0,0.5],[1,0.5]];portConstraint=eastwest;" vertex="1" parent="-SbBaC57bwo80Ey5Qgcd-37">
          <mxGeometry y="52" width="170" height="26" as="geometry" />
        </mxCell>
        <mxCell id="-SbBaC57bwo80Ey5Qgcd-40" value="・画面遷移(イメージボタン)&#xa;&#xa;・画面遷移(前日/翌日)" style="text;strokeColor=none;fillColor=none;align=left;verticalAlign=top;spacingLeft=4;spacingRight=4;overflow=hidden;rotatable=0;points=[[0,0.5],[1,0.5]];portConstraint=eastwest;" vertex="1" parent="-SbBaC57bwo80Ey5Qgcd-37">
          <mxGeometry y="78" width="170" height="52" as="geometry" />
        </mxCell>
        <mxCell id="-SbBaC57bwo80Ey5Qgcd-41" value="food_list.xml" style="text;html=1;resizable=0;autosize=1;align=center;verticalAlign=middle;points=[];fillColor=none;strokeColor=none;rounded=0;" vertex="1" parent="1">
          <mxGeometry x="570" y="460" width="80" height="20" as="geometry" />
        </mxCell>
        <mxCell id="-SbBaC57bwo80Ey5Qgcd-42" value="TaskList" style="swimlane;fontStyle=0;childLayout=stackLayout;horizontal=1;startSize=26;fillColor=none;horizontalStack=0;resizeParent=1;resizeParentMax=0;resizeLast=0;collapsible=1;marginBottom=0;" vertex="1" parent="1">
          <mxGeometry x="540" y="760" width="170" height="140" as="geometry" />
        </mxCell>
        <mxCell id="-SbBaC57bwo80Ey5Qgcd-43" value="・タスク入力&#xa;" style="text;strokeColor=none;fillColor=none;align=left;verticalAlign=top;spacingLeft=4;spacingRight=4;overflow=hidden;rotatable=0;points=[[0,0.5],[1,0.5]];portConstraint=eastwest;" vertex="1" parent="-SbBaC57bwo80Ey5Qgcd-42">
          <mxGeometry y="26" width="170" height="26" as="geometry" />
        </mxCell>
        <mxCell id="-SbBaC57bwo80Ey5Qgcd-44" value="・メモ入力" style="text;strokeColor=none;fillColor=none;align=left;verticalAlign=top;spacingLeft=4;spacingRight=4;overflow=hidden;rotatable=0;points=[[0,0.5],[1,0.5]];portConstraint=eastwest;" vertex="1" parent="-SbBaC57bwo80Ey5Qgcd-42">
          <mxGeometry y="52" width="170" height="26" as="geometry" />
        </mxCell>
        <mxCell id="-SbBaC57bwo80Ey5Qgcd-45" value="・画面遷移(イメージボタン)&#xa;&#xa;・画面遷移(前日/翌日)" style="text;strokeColor=none;fillColor=none;align=left;verticalAlign=top;spacingLeft=4;spacingRight=4;overflow=hidden;rotatable=0;points=[[0,0.5],[1,0.5]];portConstraint=eastwest;" vertex="1" parent="-SbBaC57bwo80Ey5Qgcd-42">
          <mxGeometry y="78" width="170" height="62" as="geometry" />
        </mxCell>
        <mxCell id="-SbBaC57bwo80Ey5Qgcd-46" value="・TaskDB&lt;br&gt;・TaskTestOpenHelper&lt;br&gt;" style="text;html=1;resizable=0;autosize=1;align=center;verticalAlign=middle;points=[];fillColor=none;strokeColor=none;rounded=0;" vertex="1" parent="1">
          <mxGeometry x="540" y="910" width="140" height="30" as="geometry" />
        </mxCell>
        <mxCell id="-SbBaC57bwo80Ey5Qgcd-47" value="task.xml" style="text;html=1;resizable=0;autosize=1;align=center;verticalAlign=middle;points=[];fillColor=none;strokeColor=none;rounded=0;" vertex="1" parent="1">
          <mxGeometry x="595" y="740" width="60" height="20" as="geometry" />
        </mxCell>
        <mxCell id="-SbBaC57bwo80Ey5Qgcd-51" value="" style="html=1;verticalAlign=bottom;startArrow=oval;startFill=1;endArrow=block;startSize=8;entryX=-0.018;entryY=0.008;entryDx=0;entryDy=0;entryPerimeter=0;" edge="1" parent="1" target="-SbBaC57bwo80Ey5Qgcd-16">
          <mxGeometry width="60" relative="1" as="geometry">
            <mxPoint x="180" y="120" as="sourcePoint" />
            <mxPoint x="240" y="120" as="targetPoint" />
          </mxGeometry>
        </mxCell>
        <mxCell id="-SbBaC57bwo80Ey5Qgcd-52" value="" style="html=1;verticalAlign=bottom;startArrow=oval;startFill=1;endArrow=block;startSize=8;entryX=-0.018;entryY=0.008;entryDx=0;entryDy=0;entryPerimeter=0;" edge="1" parent="1">
          <mxGeometry width="60" relative="1" as="geometry">
            <mxPoint x="210" y="240" as="sourcePoint" />
            <mxPoint x="320.00000000000006" y="239.99600000000004" as="targetPoint" />
          </mxGeometry>
        </mxCell>
        <mxCell id="-SbBaC57bwo80Ey5Qgcd-53" value="" style="endArrow=block;startArrow=block;endFill=1;startFill=1;html=1;" edge="1" parent="1">
          <mxGeometry width="160" relative="1" as="geometry">
            <mxPoint x="490" y="120" as="sourcePoint" />
            <mxPoint x="540" y="120.5" as="targetPoint" />
            <Array as="points">
              <mxPoint x="520" y="120.5" />
            </Array>
          </mxGeometry>
        </mxCell>
        <mxCell id="-SbBaC57bwo80Ey5Qgcd-56" value="" style="endArrow=block;startArrow=block;endFill=1;startFill=1;html=1;entryX=0.129;entryY=0.007;entryDx=0;entryDy=0;entryPerimeter=0;" edge="1" parent="1" target="-SbBaC57bwo80Ey5Qgcd-42">
          <mxGeometry width="160" relative="1" as="geometry">
            <mxPoint x="560" y="610" as="sourcePoint" />
            <mxPoint x="561" y="730" as="targetPoint" />
            <Array as="points">
              <mxPoint x="560" y="670" />
            </Array>
          </mxGeometry>
        </mxCell>
        <mxCell id="-SbBaC57bwo80Ey5Qgcd-57" value="" style="endArrow=block;startArrow=block;endFill=1;startFill=1;html=1;entryX=-0.012;entryY=0.737;entryDx=0;entryDy=0;entryPerimeter=0;" edge="1" parent="1" target="-SbBaC57bwo80Ey5Qgcd-32">
          <mxGeometry width="160" relative="1" as="geometry">
            <mxPoint x="400" y="300" as="sourcePoint" />
            <mxPoint x="530" y="350" as="targetPoint" />
            <Array as="points">
              <mxPoint x="400" y="350" />
            </Array>
          </mxGeometry>
        </mxCell>
        <mxCell id="-SbBaC57bwo80Ey5Qgcd-58" value="" style="endArrow=block;startArrow=block;endFill=1;startFill=1;html=1;entryX=-0.012;entryY=0.737;entryDx=0;entryDy=0;entryPerimeter=0;exitX=0.357;exitY=1;exitDx=0;exitDy=0;exitPerimeter=0;" edge="1" parent="1" source="-SbBaC57bwo80Ey5Qgcd-17">
          <mxGeometry width="160" relative="1" as="geometry">
            <mxPoint x="401.92" y="510" as="sourcePoint" />
            <mxPoint x="539.9999999999999" y="560.006" as="targetPoint" />
            <Array as="points">
              <mxPoint x="380" y="560" />
            </Array>
          </mxGeometry>
        </mxCell>
        <mxCell id="-SbBaC57bwo80Ey5Qgcd-59" value="" style="endArrow=block;startArrow=block;endFill=1;startFill=1;html=1;entryX=-0.012;entryY=0.737;entryDx=0;entryDy=0;entryPerimeter=0;exitX=0.179;exitY=0.98;exitDx=0;exitDy=0;exitPerimeter=0;" edge="1" parent="1" source="-SbBaC57bwo80Ey5Qgcd-17">
          <mxGeometry width="160" relative="1" as="geometry">
            <mxPoint x="401.92" y="790" as="sourcePoint" />
            <mxPoint x="539.9999999999999" y="840.006" as="targetPoint" />
            <Array as="points">
              <mxPoint x="360" y="840" />
            </Array>
          </mxGeometry>
        </mxCell>
        <mxCell id="-SbBaC57bwo80Ey5Qgcd-60" value="未実装" style="text;html=1;resizable=0;autosize=1;align=center;verticalAlign=middle;points=[];fillColor=none;strokeColor=none;rounded=0;" vertex="1" parent="1">
          <mxGeometry x="445" y="330" width="50" height="20" as="geometry" />
        </mxCell>
        <mxCell id="-SbBaC57bwo80Ey5Qgcd-62" value="" style="html=1;verticalAlign=bottom;startArrow=oval;startFill=1;endArrow=block;startSize=8;" edge="1" parent="1">
          <mxGeometry width="60" relative="1" as="geometry">
            <mxPoint x="555.06" y="150.94" as="sourcePoint" />
            <mxPoint x="555" y="270" as="targetPoint" />
          </mxGeometry>
        </mxCell>
        <mxCell id="-SbBaC57bwo80Ey5Qgcd-63" value="" style="html=1;verticalAlign=bottom;startArrow=oval;startFill=1;endArrow=block;startSize=8;exitX=0.094;exitY=-0.031;exitDx=0;exitDy=0;exitPerimeter=0;" edge="1" parent="1" source="-SbBaC57bwo80Ey5Qgcd-37">
          <mxGeometry width="60" relative="1" as="geometry">
            <mxPoint x="555" y="460" as="sourcePoint" />
            <mxPoint x="555" y="360" as="targetPoint" />
          </mxGeometry>
        </mxCell>
        <mxCell id="-SbBaC57bwo80Ey5Qgcd-64" value="height_weightFragment" style="swimlane;fontStyle=0;childLayout=stackLayout;horizontal=1;startSize=26;fillColor=none;horizontalStack=0;resizeParent=1;resizeParentMax=0;resizeLast=0;collapsible=1;marginBottom=0;" vertex="1" parent="1">
          <mxGeometry x="920" y="40" width="140" height="104" as="geometry" />
        </mxCell>
        <mxCell id="-SbBaC57bwo80Ey5Qgcd-65" value="・身長入力" style="text;strokeColor=none;fillColor=none;align=left;verticalAlign=top;spacingLeft=4;spacingRight=4;overflow=hidden;rotatable=0;points=[[0,0.5],[1,0.5]];portConstraint=eastwest;" vertex="1" parent="-SbBaC57bwo80Ey5Qgcd-64">
          <mxGeometry y="26" width="140" height="26" as="geometry" />
        </mxCell>
        <mxCell id="-SbBaC57bwo80Ey5Qgcd-66" value="・体重入力" style="text;strokeColor=none;fillColor=none;align=left;verticalAlign=top;spacingLeft=4;spacingRight=4;overflow=hidden;rotatable=0;points=[[0,0.5],[1,0.5]];portConstraint=eastwest;" vertex="1" parent="-SbBaC57bwo80Ey5Qgcd-64">
          <mxGeometry y="52" width="140" height="26" as="geometry" />
        </mxCell>
        <mxCell id="-SbBaC57bwo80Ey5Qgcd-67" value="・BMI表示" style="text;strokeColor=none;fillColor=none;align=left;verticalAlign=top;spacingLeft=4;spacingRight=4;overflow=hidden;rotatable=0;points=[[0,0.5],[1,0.5]];portConstraint=eastwest;" vertex="1" parent="-SbBaC57bwo80Ey5Qgcd-64">
          <mxGeometry y="78" width="140" height="26" as="geometry" />
        </mxCell>
        <mxCell id="-SbBaC57bwo80Ey5Qgcd-68" value="height_weight.xml" style="text;html=1;resizable=0;autosize=1;align=center;verticalAlign=middle;points=[];fillColor=none;strokeColor=none;rounded=0;" vertex="1" parent="1">
          <mxGeometry x="920" y="20" width="110" height="20" as="geometry" />
        </mxCell>
        <mxCell id="-SbBaC57bwo80Ey5Qgcd-69" value="・HeightWeightDB&lt;br&gt;・HeightWeightTestOpenHelper" style="text;html=1;resizable=0;autosize=1;align=center;verticalAlign=middle;points=[];fillColor=none;strokeColor=none;rounded=0;" vertex="1" parent="1">
          <mxGeometry x="895" y="144" width="190" height="30" as="geometry" />
        </mxCell>
        <mxCell id="-SbBaC57bwo80Ey5Qgcd-70" value="Setting" style="swimlane;fontStyle=0;childLayout=stackLayout;horizontal=1;startSize=26;fillColor=none;horizontalStack=0;resizeParent=1;resizeParentMax=0;resizeLast=0;collapsible=1;marginBottom=0;" vertex="1" parent="1">
          <mxGeometry x="920" y="240" width="140" height="52" as="geometry" />
        </mxCell>
        <mxCell id="-SbBaC57bwo80Ey5Qgcd-71" value="・画面遷移" style="text;strokeColor=none;fillColor=none;align=left;verticalAlign=top;spacingLeft=4;spacingRight=4;overflow=hidden;rotatable=0;points=[[0,0.5],[1,0.5]];portConstraint=eastwest;" vertex="1" parent="-SbBaC57bwo80Ey5Qgcd-70">
          <mxGeometry y="26" width="140" height="26" as="geometry" />
        </mxCell>
        <mxCell id="-SbBaC57bwo80Ey5Qgcd-74" value="setting.xml" style="text;html=1;resizable=0;autosize=1;align=center;verticalAlign=middle;points=[];fillColor=none;strokeColor=none;rounded=0;" vertex="1" parent="1">
          <mxGeometry x="950" y="220" width="70" height="20" as="geometry" />
        </mxCell>
        <mxCell id="-SbBaC57bwo80Ey5Qgcd-75" value="helloFragment" style="swimlane;fontStyle=0;childLayout=stackLayout;horizontal=1;startSize=26;fillColor=none;horizontalStack=0;resizeParent=1;resizeParentMax=0;resizeLast=0;collapsible=1;marginBottom=0;" vertex="1" parent="1">
          <mxGeometry x="920" y="380" width="140" height="52" as="geometry" />
        </mxCell>
        <mxCell id="-SbBaC57bwo80Ey5Qgcd-83" value="" style="endArrow=block;startArrow=block;endFill=1;startFill=1;html=1;" edge="1" parent="-SbBaC57bwo80Ey5Qgcd-75">
          <mxGeometry width="160" relative="1" as="geometry">
            <mxPoint x="29" y="-88" as="sourcePoint" />
            <mxPoint x="29" as="targetPoint" />
            <Array as="points">
              <mxPoint x="29" y="-37.5" />
            </Array>
          </mxGeometry>
        </mxCell>
        <mxCell id="-SbBaC57bwo80Ey5Qgcd-76" value="・Welcome文の表示" style="text;strokeColor=none;fillColor=none;align=left;verticalAlign=top;spacingLeft=4;spacingRight=4;overflow=hidden;rotatable=0;points=[[0,0.5],[1,0.5]];portConstraint=eastwest;" vertex="1" parent="-SbBaC57bwo80Ey5Qgcd-75">
          <mxGeometry y="26" width="140" height="26" as="geometry" />
        </mxCell>
        <mxCell id="-SbBaC57bwo80Ey5Qgcd-79" value="hello.xml" style="text;html=1;resizable=0;autosize=1;align=center;verticalAlign=middle;points=[];fillColor=none;strokeColor=none;rounded=0;" vertex="1" parent="1">
          <mxGeometry x="960" y="360" width="60" height="20" as="geometry" />
        </mxCell>
        <mxCell id="-SbBaC57bwo80Ey5Qgcd-80" value="※設定各種未実装" style="text;html=1;resizable=0;autosize=1;align=center;verticalAlign=middle;points=[];fillColor=none;strokeColor=none;rounded=0;" vertex="1" parent="1">
          <mxGeometry x="950" y="292" width="110" height="20" as="geometry" />
        </mxCell>
        <mxCell id="-SbBaC57bwo80Ey5Qgcd-82" value="" style="endArrow=block;startArrow=block;endFill=1;startFill=1;html=1;" edge="1" parent="1">
          <mxGeometry width="160" relative="1" as="geometry">
            <mxPoint x="949" y="174" as="sourcePoint" />
            <mxPoint x="949" y="240" as="targetPoint" />
            <Array as="points">
              <mxPoint x="949" y="214.5" />
            </Array>
          </mxGeometry>
        </mxCell>
        <mxCell id="-SbBaC57bwo80Ey5Qgcd-84" value="SettingMain" style="swimlane;fontStyle=0;childLayout=stackLayout;horizontal=1;startSize=26;fillColor=none;horizontalStack=0;resizeParent=1;resizeParentMax=0;resizeLast=0;collapsible=1;marginBottom=0;" vertex="1" parent="1">
          <mxGeometry x="1280" y="40" width="140" height="52" as="geometry" />
        </mxCell>
        <mxCell id="-SbBaC57bwo80Ey5Qgcd-85" value="・画面遷移" style="text;strokeColor=none;fillColor=none;align=left;verticalAlign=top;spacingLeft=4;spacingRight=4;overflow=hidden;rotatable=0;points=[[0,0.5],[1,0.5]];portConstraint=eastwest;" vertex="1" parent="-SbBaC57bwo80Ey5Qgcd-84">
          <mxGeometry y="26" width="140" height="26" as="geometry" />
        </mxCell>
        <mxCell id="-SbBaC57bwo80Ey5Qgcd-88" value="setting_main.xml" style="text;html=1;resizable=0;autosize=1;align=center;verticalAlign=middle;points=[];fillColor=none;strokeColor=none;rounded=0;" vertex="1" parent="1">
          <mxGeometry x="1295" y="20" width="110" height="20" as="geometry" />
        </mxCell>
        <mxCell id="-SbBaC57bwo80Ey5Qgcd-90" value="SettingMainScreen" style="swimlane;fontStyle=0;childLayout=stackLayout;horizontal=1;startSize=26;fillColor=none;horizontalStack=0;resizeParent=1;resizeParentMax=0;resizeLast=0;collapsible=1;marginBottom=0;" vertex="1" parent="1">
          <mxGeometry x="1490" y="40" width="140" height="52" as="geometry" />
        </mxCell>
        <mxCell id="-SbBaC57bwo80Ey5Qgcd-91" value="・画面遷移" style="text;strokeColor=none;fillColor=none;align=left;verticalAlign=top;spacingLeft=4;spacingRight=4;overflow=hidden;rotatable=0;points=[[0,0.5],[1,0.5]];portConstraint=eastwest;" vertex="1" parent="-SbBaC57bwo80Ey5Qgcd-90">
          <mxGeometry y="26" width="140" height="26" as="geometry" />
        </mxCell>
        <mxCell id="-SbBaC57bwo80Ey5Qgcd-94" value="setting_main_screen.xml" style="text;html=1;resizable=0;autosize=1;align=center;verticalAlign=middle;points=[];fillColor=none;strokeColor=none;rounded=0;" vertex="1" parent="1">
          <mxGeometry x="1485" y="20" width="150" height="20" as="geometry" />
        </mxCell>
        <mxCell id="-SbBaC57bwo80Ey5Qgcd-95" value="SettingInformation" style="swimlane;fontStyle=0;childLayout=stackLayout;horizontal=1;startSize=26;fillColor=none;horizontalStack=0;resizeParent=1;resizeParentMax=0;resizeLast=0;collapsible=1;marginBottom=0;" vertex="1" parent="1">
          <mxGeometry x="1280" y="164" width="140" height="52" as="geometry" />
        </mxCell>
        <mxCell id="-SbBaC57bwo80Ey5Qgcd-96" value="・画面遷移" style="text;strokeColor=none;fillColor=none;align=left;verticalAlign=top;spacingLeft=4;spacingRight=4;overflow=hidden;rotatable=0;points=[[0,0.5],[1,0.5]];portConstraint=eastwest;" vertex="1" parent="-SbBaC57bwo80Ey5Qgcd-95">
          <mxGeometry y="26" width="140" height="26" as="geometry" />
        </mxCell>
        <mxCell id="-SbBaC57bwo80Ey5Qgcd-99" value="setting_information.xml" style="text;html=1;resizable=0;autosize=1;align=center;verticalAlign=middle;points=[];fillColor=none;strokeColor=none;rounded=0;" vertex="1" parent="1">
          <mxGeometry x="1280" y="144" width="140" height="20" as="geometry" />
        </mxCell>
        <mxCell id="-SbBaC57bwo80Ey5Qgcd-100" value="SettingHelp" style="swimlane;fontStyle=0;childLayout=stackLayout;horizontal=1;startSize=26;fillColor=none;horizontalStack=0;resizeParent=1;resizeParentMax=0;resizeLast=0;collapsible=1;marginBottom=0;" vertex="1" parent="1">
          <mxGeometry x="1280" y="280" width="140" height="52" as="geometry" />
        </mxCell>
        <mxCell id="-SbBaC57bwo80Ey5Qgcd-101" value="・画面遷移" style="text;strokeColor=none;fillColor=none;align=left;verticalAlign=top;spacingLeft=4;spacingRight=4;overflow=hidden;rotatable=0;points=[[0,0.5],[1,0.5]];portConstraint=eastwest;" vertex="1" parent="-SbBaC57bwo80Ey5Qgcd-100">
          <mxGeometry y="26" width="140" height="26" as="geometry" />
        </mxCell>
        <mxCell id="-SbBaC57bwo80Ey5Qgcd-104" value="setting_help.xml" style="text;html=1;resizable=0;autosize=1;align=center;verticalAlign=middle;points=[];fillColor=none;strokeColor=none;rounded=0;" vertex="1" parent="1">
          <mxGeometry x="1300" y="260" width="100" height="20" as="geometry" />
        </mxCell>
        <mxCell id="-SbBaC57bwo80Ey5Qgcd-105" value="SettingDelete" style="swimlane;fontStyle=0;childLayout=stackLayout;horizontal=1;startSize=26;fillColor=none;horizontalStack=0;resizeParent=1;resizeParentMax=0;resizeLast=0;collapsible=1;marginBottom=0;" vertex="1" parent="1">
          <mxGeometry x="1280" y="400" width="140" height="52" as="geometry" />
        </mxCell>
        <mxCell id="-SbBaC57bwo80Ey5Qgcd-106" value="・画面遷移" style="text;strokeColor=none;fillColor=none;align=left;verticalAlign=top;spacingLeft=4;spacingRight=4;overflow=hidden;rotatable=0;points=[[0,0.5],[1,0.5]];portConstraint=eastwest;" vertex="1" parent="-SbBaC57bwo80Ey5Qgcd-105">
          <mxGeometry y="26" width="140" height="26" as="geometry" />
        </mxCell>
        <mxCell id="-SbBaC57bwo80Ey5Qgcd-109" value="setting_delete.xml" style="text;html=1;resizable=0;autosize=1;align=center;verticalAlign=middle;points=[];fillColor=none;strokeColor=none;rounded=0;" vertex="1" parent="1">
          <mxGeometry x="1295" y="380" width="110" height="20" as="geometry" />
        </mxCell>
        <mxCell id="-SbBaC57bwo80Ey5Qgcd-114" value="setting_data.xml" style="text;html=1;resizable=0;autosize=1;align=center;verticalAlign=middle;points=[];fillColor=none;strokeColor=none;rounded=0;" vertex="1" parent="1">
          <mxGeometry x="1300" y="510" width="100" height="20" as="geometry" />
        </mxCell>
        <mxCell id="-SbBaC57bwo80Ey5Qgcd-116" value="SettingData" style="swimlane;fontStyle=0;childLayout=stackLayout;horizontal=1;startSize=26;fillColor=none;horizontalStack=0;resizeParent=1;resizeParentMax=0;resizeLast=0;collapsible=1;marginBottom=0;" vertex="1" parent="1">
          <mxGeometry x="1280" y="532" width="140" height="78" as="geometry" />
        </mxCell>
        <mxCell id="-SbBaC57bwo80Ey5Qgcd-117" value="・画面遷移" style="text;strokeColor=none;fillColor=none;align=left;verticalAlign=top;spacingLeft=4;spacingRight=4;overflow=hidden;rotatable=0;points=[[0,0.5],[1,0.5]];portConstraint=eastwest;" vertex="1" parent="-SbBaC57bwo80Ey5Qgcd-116">
          <mxGeometry y="26" width="140" height="26" as="geometry" />
        </mxCell>
        <mxCell id="-SbBaC57bwo80Ey5Qgcd-118" value="※データ出力着手中" style="text;strokeColor=none;fillColor=none;align=left;verticalAlign=top;spacingLeft=4;spacingRight=4;overflow=hidden;rotatable=0;points=[[0,0.5],[1,0.5]];portConstraint=eastwest;" vertex="1" parent="-SbBaC57bwo80Ey5Qgcd-116">
          <mxGeometry y="52" width="140" height="26" as="geometry" />
        </mxCell>
        <mxCell id="-SbBaC57bwo80Ey5Qgcd-121" value="SettingCalendar" style="swimlane;fontStyle=0;childLayout=stackLayout;horizontal=1;startSize=26;fillColor=none;horizontalStack=0;resizeParent=1;resizeParentMax=0;resizeLast=0;collapsible=1;marginBottom=0;" vertex="1" parent="1">
          <mxGeometry x="1490" y="164" width="140" height="52" as="geometry" />
        </mxCell>
        <mxCell id="-SbBaC57bwo80Ey5Qgcd-122" value="・画面遷移" style="text;strokeColor=none;fillColor=none;align=left;verticalAlign=top;spacingLeft=4;spacingRight=4;overflow=hidden;rotatable=0;points=[[0,0.5],[1,0.5]];portConstraint=eastwest;" vertex="1" parent="-SbBaC57bwo80Ey5Qgcd-121">
          <mxGeometry y="26" width="140" height="26" as="geometry" />
        </mxCell>
        <mxCell id="-SbBaC57bwo80Ey5Qgcd-125" value="setting_main_screen_calendar.xml" style="text;html=1;resizable=0;autosize=1;align=center;verticalAlign=middle;points=[];fillColor=none;strokeColor=none;rounded=0;" vertex="1" parent="1">
          <mxGeometry x="1450" y="144" width="200" height="20" as="geometry" />
        </mxCell>
        <mxCell id="-SbBaC57bwo80Ey5Qgcd-126" value="SettingHeight" style="swimlane;fontStyle=0;childLayout=stackLayout;horizontal=1;startSize=26;fillColor=none;horizontalStack=0;resizeParent=1;resizeParentMax=0;resizeLast=0;collapsible=1;marginBottom=0;" vertex="1" parent="1">
          <mxGeometry x="1490" y="280" width="140" height="78" as="geometry" />
        </mxCell>
        <mxCell id="-SbBaC57bwo80Ey5Qgcd-127" value="・画面遷移" style="text;strokeColor=none;fillColor=none;align=left;verticalAlign=top;spacingLeft=4;spacingRight=4;overflow=hidden;rotatable=0;points=[[0,0.5],[1,0.5]];portConstraint=eastwest;" vertex="1" parent="-SbBaC57bwo80Ey5Qgcd-126">
          <mxGeometry y="26" width="140" height="26" as="geometry" />
        </mxCell>
        <mxCell id="-SbBaC57bwo80Ey5Qgcd-128" value="・身長入力" style="text;strokeColor=none;fillColor=none;align=left;verticalAlign=top;spacingLeft=4;spacingRight=4;overflow=hidden;rotatable=0;points=[[0,0.5],[1,0.5]];portConstraint=eastwest;" vertex="1" parent="-SbBaC57bwo80Ey5Qgcd-126">
          <mxGeometry y="52" width="140" height="26" as="geometry" />
        </mxCell>
        <mxCell id="-SbBaC57bwo80Ey5Qgcd-130" value="setting_main_screen_height.xml" style="text;html=1;resizable=0;autosize=1;align=center;verticalAlign=middle;points=[];fillColor=none;strokeColor=none;rounded=0;" vertex="1" parent="1">
          <mxGeometry x="1455" y="260" width="190" height="20" as="geometry" />
        </mxCell>
        <mxCell id="-SbBaC57bwo80Ey5Qgcd-131" value="SettingWeight" style="swimlane;fontStyle=0;childLayout=stackLayout;horizontal=1;startSize=26;fillColor=none;horizontalStack=0;resizeParent=1;resizeParentMax=0;resizeLast=0;collapsible=1;marginBottom=0;" vertex="1" parent="1">
          <mxGeometry x="1495" y="432" width="140" height="78" as="geometry" />
        </mxCell>
        <mxCell id="-SbBaC57bwo80Ey5Qgcd-132" value="・画面遷移" style="text;strokeColor=none;fillColor=none;align=left;verticalAlign=top;spacingLeft=4;spacingRight=4;overflow=hidden;rotatable=0;points=[[0,0.5],[1,0.5]];portConstraint=eastwest;" vertex="1" parent="-SbBaC57bwo80Ey5Qgcd-131">
          <mxGeometry y="26" width="140" height="26" as="geometry" />
        </mxCell>
        <mxCell id="-SbBaC57bwo80Ey5Qgcd-133" value="・体重入力" style="text;strokeColor=none;fillColor=none;align=left;verticalAlign=top;spacingLeft=4;spacingRight=4;overflow=hidden;rotatable=0;points=[[0,0.5],[1,0.5]];portConstraint=eastwest;" vertex="1" parent="-SbBaC57bwo80Ey5Qgcd-131">
          <mxGeometry y="52" width="140" height="26" as="geometry" />
        </mxCell>
        <mxCell id="-SbBaC57bwo80Ey5Qgcd-135" value="setting_main_screen_weight.xml" style="text;html=1;resizable=0;autosize=1;align=center;verticalAlign=middle;points=[];fillColor=none;strokeColor=none;rounded=0;" vertex="1" parent="1">
          <mxGeometry x="1455" y="412" width="190" height="20" as="geometry" />
        </mxCell>
        <mxCell id="-SbBaC57bwo80Ey5Qgcd-136" value="" style="endArrow=block;startArrow=block;endFill=1;startFill=1;html=1;" edge="1" parent="1">
          <mxGeometry width="160" relative="1" as="geometry">
            <mxPoint x="1280" y="216" as="sourcePoint" />
            <mxPoint x="1280" y="282" as="targetPoint" />
            <Array as="points">
              <mxPoint x="1280" y="256.5" />
            </Array>
          </mxGeometry>
        </mxCell>
        <mxCell id="-SbBaC57bwo80Ey5Qgcd-137" value="" style="endArrow=block;startArrow=block;endFill=1;startFill=1;html=1;entryX=0;entryY=0;entryDx=0;entryDy=0;" edge="1" parent="1" target="-SbBaC57bwo80Ey5Qgcd-95">
          <mxGeometry width="160" relative="1" as="geometry">
            <mxPoint x="1280" y="92" as="sourcePoint" />
            <mxPoint x="1280" y="160" as="targetPoint" />
            <Array as="points">
              <mxPoint x="1280" y="132.5" />
            </Array>
          </mxGeometry>
        </mxCell>
        <mxCell id="-SbBaC57bwo80Ey5Qgcd-138" value="" style="endArrow=block;startArrow=block;endFill=1;startFill=1;html=1;" edge="1" parent="1">
          <mxGeometry width="160" relative="1" as="geometry">
            <mxPoint x="1280" y="330" as="sourcePoint" />
            <mxPoint x="1280" y="400" as="targetPoint" />
            <Array as="points">
              <mxPoint x="1280" y="370.5" />
            </Array>
          </mxGeometry>
        </mxCell>
        <mxCell id="-SbBaC57bwo80Ey5Qgcd-139" value="" style="endArrow=block;startArrow=block;endFill=1;startFill=1;html=1;entryX=0;entryY=0;entryDx=0;entryDy=0;" edge="1" parent="1" target="-SbBaC57bwo80Ey5Qgcd-116">
          <mxGeometry width="160" relative="1" as="geometry">
            <mxPoint x="1280" y="452" as="sourcePoint" />
            <mxPoint x="1280" y="518" as="targetPoint" />
            <Array as="points">
              <mxPoint x="1280" y="492.5" />
            </Array>
          </mxGeometry>
        </mxCell>
        <mxCell id="-SbBaC57bwo80Ey5Qgcd-140" value="" style="endArrow=block;startArrow=block;endFill=1;startFill=1;html=1;entryX=0;entryY=0;entryDx=0;entryDy=0;" edge="1" parent="1">
          <mxGeometry width="160" relative="1" as="geometry">
            <mxPoint x="1490" y="92" as="sourcePoint" />
            <mxPoint x="1490" y="146" as="targetPoint" />
            <Array as="points">
              <mxPoint x="1490" y="114.5" />
            </Array>
          </mxGeometry>
        </mxCell>
        <mxCell id="-SbBaC57bwo80Ey5Qgcd-141" value="" style="endArrow=block;startArrow=block;endFill=1;startFill=1;html=1;entryX=0;entryY=0;entryDx=0;entryDy=0;" edge="1" parent="1">
          <mxGeometry width="160" relative="1" as="geometry">
            <mxPoint x="1489" y="216" as="sourcePoint" />
            <mxPoint x="1489" y="266" as="targetPoint" />
            <Array as="points">
              <mxPoint x="1489" y="234.5" />
            </Array>
          </mxGeometry>
        </mxCell>
        <mxCell id="-SbBaC57bwo80Ey5Qgcd-142" value="" style="endArrow=block;startArrow=block;endFill=1;startFill=1;html=1;entryX=0;entryY=0;entryDx=0;entryDy=0;" edge="1" parent="1">
          <mxGeometry width="160" relative="1" as="geometry">
            <mxPoint x="1490" y="362" as="sourcePoint" />
            <mxPoint x="1490" y="412" as="targetPoint" />
            <Array as="points">
              <mxPoint x="1490" y="380.5" />
            </Array>
          </mxGeometry>
        </mxCell>
        <mxCell id="-SbBaC57bwo80Ey5Qgcd-143" value="※各設定画面遷移可能" style="text;html=1;resizable=0;autosize=1;align=center;verticalAlign=middle;points=[];fillColor=none;strokeColor=none;rounded=0;" vertex="1" parent="1">
          <mxGeometry x="1470" y="561" width="140" height="20" as="geometry" />
        </mxCell>
      </root>
    </mxGraphModel>
  </diagram>
</mxfile>
